<svg xmlns="http://www.w3.org/2000/svg" viewBox="0 0 1200 800" role="img" aria-label="Stylized river delta">
  <defs>
    <radialGradient id="glow" cx="30%" cy="25%" r="70%">
      <stop offset="0" stop-color="#1F6FEB" stop-opacity="0.22"/>
      <stop offset="1" stop-color="#0b1220" stop-opacity="0"/>
    </radialGradient>
    <linearGradient id="water3" x1="0" x2="1" y1="0" y2="0">
      <stop offset="0" stop-color="#1F6FEB"/>
      <stop offset="0.55" stop-color="#06b6d4"/>
      <stop offset="1" stop-color="#22C55E"/>
    </linearGradient>
  </defs>
  <rect width="1200" height="800" fill="#0b1220"/>
  <rect width="1200" height="800" fill="url(#glow)"/>
  <path d="M0,520 C260,420 420,600 640,520 C860,440 980,540 1200,480 L1200,800 L0,800 Z" fill="#0c1830"/>
  <path d="M-40,720 C160,610 340,760 540,640 C720,530 880,740 1040,600 C1120,520 1160,500 1260,460" fill="none" stroke="url(#water3)" stroke-width="88" stroke-linecap="round"/>
  <path d="M-40,720 C160,610 340,760 540,640 C720,530 880,740 1040,600 C1120,520 1160,500 1260,460" fill="none" stroke="#ffffff" stroke-opacity="0.10" stroke-width="16" stroke-linecap="round"/>
  <circle cx="940" cy="250" r="72" fill="#06b6d4" fill-opacity="0.10"/>
  <circle cx="940" cy="250" r="34" fill="#06b6d4" fill-opacity="0.12"/>
</svg>
