<svg xmlns="http://www.w3.org/2000/svg" viewBox="0 0 1200 800" role="img" aria-label="Stylized river and hills">
  <defs>
    <linearGradient id="bg" x1="0" x2="1" y1="0" y2="1">
      <stop offset="0" stop-color="#0b1220"/>
      <stop offset="1" stop-color="#0f172a"/>
    </linearGradient>
    <linearGradient id="water2" x1="0" x2="0" y1="0" y2="1">
      <stop offset="0" stop-color="#06b6d4"/>
      <stop offset="1" stop-color="#1F6FEB"/>
    </linearGradient>
  </defs>
  <rect width="1200" height="800" fill="url(#bg)"/>
  <path d="M0,520 C190,420 310,560 500,500 C690,440 790,560 980,510 C1100,480 1160,470 1200,480 L1200,800 L0,800 Z" fill="#0a1a2f"/>
  <path d="M0,610 C220,520 360,650 560,610 C760,570 860,660 1040,620 C1120,602 1160,595 1200,600 L1200,800 L0,800 Z" fill="#081427"/>
  <path d="M-60,740 C120,640 270,740 430,650 C600,560 740,700 900,600 C1040,510 1110,570 1260,470" fill="none" stroke="url(#water2)" stroke-width="95" stroke-linecap="round"/>
  <path d="M-60,740 C120,640 270,740 430,650 C600,560 740,700 900,600 C1040,510 1110,570 1260,470" fill="none" stroke="#ffffff" stroke-opacity="0.12" stroke-width="18" stroke-linecap="round"/>
  <g opacity="0.85">
    <path d="M180,470 l40,-90 l40,90 z" fill="#22C55E" fill-opacity="0.14"/>
    <path d="M250,470 l44,-110 l44,110 z" fill="#22C55E" fill-opacity="0.12"/>
    <path d="M980,520 l44,-110 l44,110 z" fill="#22C55E" fill-opacity="0.10"/>
  </g>
</svg>
