<svg xmlns="http://www.w3.org/2000/svg" viewBox="0 0 1200 800" role="img" aria-label="Stylized river landscape">
  <defs>
    <linearGradient id="sky" x1="0" x2="0" y1="0" y2="1">
      <stop offset="0" stop-color="#0ea5e9" stop-opacity="0.22"/>
      <stop offset="1" stop-color="#ffffff" stop-opacity="0"/>
    </linearGradient>
    <linearGradient id="water" x1="0" x2="1" y1="0" y2="1">
      <stop offset="0" stop-color="#1F6FEB"/>
      <stop offset="1" stop-color="#06b6d4"/>
    </linearGradient>
    <filter id="soft" x="-20%" y="-20%" width="140%" height="140%">
      <feGaussianBlur stdDeviation="10" result="b"/>
      <feColorMatrix in="b" type="matrix"
        values="1 0 0 0 0
                0 1 0 0 0
                0 0 1 0 0
                0 0 0 0.35 0" result="s"/>
      <feMerge><feMergeNode in="s"/><feMergeNode in="SourceGraphic"/></feMerge>
    </filter>
  </defs>
  <rect width="1200" height="800" fill="#0b1220"/>
  <rect width="1200" height="800" fill="url(#sky)"/>
  <path d="M0,520 C220,430 370,610 540,520 C710,430 820,510 980,460 C1080,430 1140,420 1200,430 L1200,800 L0,800 Z" fill="#0f1b2e"/>
  <path d="M0,600 C220,510 370,690 540,600 C710,510 820,590 980,540 C1080,510 1140,500 1200,510 L1200,800 L0,800 Z" fill="#0a1526"/>
  <path d="M-40,760 C160,600 360,760 560,600 C760,440 880,620 1100,460" fill="none" stroke="url(#water)" stroke-width="110" stroke-linecap="round" filter="url(#soft)"/>
  <path d="M-40,760 C160,600 360,760 560,600 C760,440 880,620 1100,460" fill="none" stroke="#9ae6ff" stroke-opacity="0.22" stroke-width="22" stroke-linecap="round"/>
  <circle cx="230" cy="240" r="72" fill="#22C55E" fill-opacity="0.12"/>
  <circle cx="230" cy="240" r="36" fill="#22C55E" fill-opacity="0.14"/>
</svg>
